<?xml version="1.0" encoding="utf-8"?>
<!-- Generator: Adobe Illustrator 27.7.0, SVG Export Plug-In . SVG Version: 6.00 Build 0)  -->
<svg version="1.1" id="Layer_1" xmlns="http://www.w3.org/2000/svg" xmlns:xlink="http://www.w3.org/1999/xlink" x="0px" y="0px"
	 viewBox="0 0 600 600" style="enable-background:new 0 0 600 600;" xml:space="preserve">
<style type="text/css">
	.st0{fill:#FFFFFF;}
	.st1{fill:#505050;}
	.st2{fill:#002050;}
	.st3{fill:#012151;}
	.st4{fill:#0064B5;}
	.st5{fill:#FFFFFF;stroke:#000000;stroke-width:0.5;stroke-linecap:round;stroke-linejoin:round;}
	.st6{fill:#505151;stroke:#000000;stroke-width:0.5;stroke-linecap:round;stroke-linejoin:round;}
	.st7{fill:#505050;stroke:#000000;stroke-width:0.5;stroke-linecap:round;stroke-linejoin:round;}
	.st8{stroke:#000000;stroke-width:0.5;stroke-linecap:round;stroke-linejoin:round;}
	.st9{fill:#0064B5;stroke:#000000;stroke-width:0.5;stroke-linecap:round;stroke-linejoin:round;}
</style>
<path class="st0" d="M1121.5,316.1"/>
<g>
	<path class="st0" d="M101,489.3c0-68.6,0-137.3,0-205.9c74.1,0,148.2,0,222.4,0c0,68.6,0,137.2,0,205.9
		C249.3,489.3,175.2,489.3,101,489.3z M289.8,356.7c0-12.1,0-24.1,0-36.2c0-2.3-0.3-4.6-1-6.9c-1.5-4.8-4.6-7.7-8.5-9.3
		c-3.5-1.5-7.3-2.2-11-3.2c-6.9-1.9-13.9-3.9-20.8-5.8c-4.7-1.3-9.5-2.8-14.2-4.1c-4-1.1-8.1-2.1-12.1-3.1c-2.6-0.6-5.1-1.4-7.7-1.6
		c-4.2-0.5-8.3,0.2-12.3,1.5c-4,1.3-8.1,2.4-12.2,3.6c-7.3,2-14.7,4-22,6.1c-4.8,1.3-9.5,2.6-14.3,3.9c-2.8,0.8-5.7,1.4-8.5,2.4
		c-3.1,1.1-5.8,2.8-7.9,5.9c-1.6,2.3-2.8,4.8-2.8,7.6c-0.2,13.2-0.1,26.4-0.1,39.6c-1,0.2-2,0.3-3,0.5c-3.6,0.5-7.2,1-10.8,1.6
		c-3.6,0.6-7.4,0.8-10.3,3.7c-1.9,1.9-3.6,4.2-3.3,7.2c0.3,3.1,1.1,6.1,1.8,9.1c1.1,5.4,2.3,10.8,3.4,16.3
		c1.2,5.9,2.5,11.8,3.7,17.7c0.6,3.1,2.6,4.8,4.9,6.3c4,2.7,8.3,1.6,12.4,0.8c1-0.2,1.3,0.1,1.6,0.9c0.1,1,0.3,2,0.3,3
		c0.2,5.1,2.3,9.5,4.2,14c0.6,1.3,1.2,2.6,2,3.8c1.5,2.2,3.1,4.3,4.8,6.4c1.4,1.7,2.9,3.3,4.4,4.8c2.4,2.2,4.8,4.4,7.3,6.4
		c3.1,2.5,6.3,5.1,9.6,7.2c3.7,2.4,7.6,4.6,11.5,6.6c4.5,2.4,8.9,4.7,13.5,6.7c5,2.2,10,4.2,15.1,6c1.9,0.7,4,1.5,5.8,1
		c4.4-1.2,8.7-2.9,12.9-4.7c5.5-2.4,11-5,16.4-7.7c4.7-2.4,9.3-5.1,13.8-7.9c3.2-2,6.2-4.2,9.2-6.6c2.7-2.1,5.3-4.2,7.7-6.6
		c2.9-3.1,5.8-6.4,8.3-9.9c2.1-3,4.1-6.4,5.5-9.9c1.7-4.1,2.8-8.6,2.6-13.2c1.2,0,2.3-0.2,3.5,0.1c3.1,0.7,6.2,0.9,9.3-0.4
		c3-1.3,5.4-3.3,6.3-6.9c0.4-1.6,0.7-3.2,1.1-4.9c1.2-6,2.4-12.1,3.7-18.1c1.2-5.7,2.4-11.3,3.6-17c1.3-6-0.9-10.2-5.8-12.6
		c-1.5-0.7-3.3-1-4.9-1.3c-3.5-0.6-7-1.1-10.5-1.7C293.7,357.4,291.7,357,289.8,356.7z"/>
	<path class="st1" d="M134.6,419.9c-1,0.1-2.2,0.3-3.8,0.6c-4.2,0.6-4.9,0.7-5.8,0.5c-2.1-0.3-3.6-1.1-4.4-1.6c-0.8-0.5-2.8-1.7-4-4
		c-0.4-0.7-0.7-1.5-0.9-2.3c-1.2-5.9-2.4-11.8-3.7-17.7c-1.1-5.4-2.3-10.8-3.4-16.3c-0.6-3-1.5-6-1.8-9.1c-0.3-3,1.3-5.2,3.3-7.2
		c3-2.9,6.7-3.1,10.3-3.7c3.6-0.6,7.2-1.1,10.8-1.6c1-0.1,2-0.3,3-0.5c2.2-0.2,4.3-0.6,6.5-0.6c1.5,0,1.8-0.6,1.8-2.1
		c0-11.7,0.1-23.4-0.1-35.1c0-3.5,2-7,4.9-7.9c1.9-0.6,3.7-1.2,5.5-1.7c9.9-2.8,19.8-5.6,29.7-8.4c6.7-1.9,13.4-3.9,20.2-5.6
		c3.2-0.8,6.4-1.7,9.7-1.8c3-0.1,6,0.7,8.9,1.5c9,2.4,18,5,26.9,7.5c5.2,1.5,10.5,2.9,15.7,4.4c3.9,1.1,7.9,2.2,11.8,3.3
		c3.5,1,6.2,4.2,5.8,8.4c-0.1,1.3,0,2.6,0,3.9c0,10.4,0,20.8,0,31.2c0,1,0,1.9,1.1,2c2.4,0.2,4.7,0.5,7.1,0.7c2,0.3,3.9,0.7,5.9,1
		c3.5,0.6,7,1.1,10.5,1.7c1.7,0.3,3.4,0.5,4.9,1.3c4.9,2.4,7.2,6.5,5.8,12.6c-1.2,5.7-2.4,11.3-3.6,17c-1.3,6-2.4,12.1-3.7,18.1
		c-0.3,1.6-0.7,3.3-1.1,4.9c-0.5,2-1.5,3.2-1.8,3.6c-0.9,1.3-1.6,2.4-2.8,3.1c-2.9,1.9-7.3,1.2-11,0.6c-0.1,0-0.5-0.1-1.1-0.1
		c-0.8,0-1.6,0.1-2.4,0c-0.2-0.2-0.3-0.6-0.6-0.6c-1.6-0.3-3.3-0.5-4.9-0.7c-0.7-0.1-1.5,0-2.3,0c-0.4-0.1-0.9-0.3-1.3-0.3
		c-3.1-0.4-6.2-0.7-9.3-1c-5.2-0.6-10.3-1.2-15.5-1.7c-4.9-0.4-9.8-0.8-14.7-1c-6.2-0.3-12.5-0.7-18.7-0.7
		c-11.2,0.1-22.4,0.4-33.7,0.6c-3.6,0.1-7.3,0.2-10.9,0.4c-1.8,0.1-3.6,0.2-5.5,0.4c-4.4,0.4-8.8,0.9-13.3,1.3
		c-1.8,0.2-3.6,0.2-5.5,0.4c-3.7,0.4-7.3,0.9-11,1.3c-1.2,0.1-3.3,0.3-6.2,0.8C135.6,419.7,135,419.8,134.6,419.9z M158.3,358.4
		c0-0.1,0-0.1,0-0.2c-1,0.1-2,0.3-3,0.4c-3.8,0.5-7.7,0.9-11.5,1.4c-3.3,0.4-6.6,0.9-10,1.3c-2.3,0.3-4.6,0.5-6.9,0.8
		c-3.2,0.5-6.4,1.2-9.6,1.6c-4.6,0.6-7,4.9-5.6,9.8c0.9,3,1.5,6.2,2.1,9.4c1,4.9,1.9,9.8,2.9,14.7c0.8,4.1,1.9,8.1,2.6,12.2
		c0.9,4.8,4.3,7.8,8.2,7.1c2.7-0.5,5.3-1,8-1.4c5.3-0.7,10.6-1.4,16-2.1c4.5-0.5,9-1,13.5-1.4c4.5-0.4,9-0.7,13.5-1
		c4.5-0.3,9.1-0.5,13.6-0.7c4.3-0.2,8.5-0.3,12.8-0.3c5.4,0,10.8,0.2,16.1,0.3c6.9,0.2,13.9,0.4,20.8,0.7c2.9,0.1,5.8,0.2,8.6,0.3
		c1.7,0.1,3.3,0.2,5,0.4c4.6,0.4,9.3,0.9,13.9,1.4c1.4,0.1,2.8,0.2,4.2,0.4c3.9,0.5,7.8,1.1,11.8,1.6c3.7,0.5,7.4,1,11,1.7
		c2.9,0.5,6.6-1.4,7.6-4.4c0.8-2.7,1.4-5.4,2-8.2c1.3-6,2.5-12,3.7-18c1-4.9,1.7-9.9,2.9-14.7c1-4.1-1.5-7.1-4.4-7.7
		c-3.3-0.8-6.7-1.2-10-1.7c-2.9-0.4-5.8-0.7-8.7-1.1c-3.2-0.4-6.4-1-9.7-1.3c-2.8-0.3-5.6-0.4-8.4-0.7c-4.2-0.4-8.5-0.9-12.7-1.3
		c-3.2-0.3-6.3-0.5-9.5-0.7c-4.5-0.3-9-0.5-13.5-0.7c-3.4-0.2-6.9-0.3-10.3-0.3c-9.4,0.1-18.9,0.2-28.3,0.3c-4,0.1-8,0.2-12,0.3
		c-3.4,0.1-6.8,0.2-10.2,0.3c-1.9,0.1-3.7,0.2-5.6,0.4C165.6,357.7,161.9,358.1,158.3,358.4z"/>
	<path class="st2" d="M289.8,356.7c-2.4-0.2-4.7-0.5-7.1-0.7c-1.2-0.1-1.1-1-1.1-2c0-10.4,0-20.8,0-31.2c0-1.3-0.1-2.6,0-3.9
		c0.4-4.2-2.3-7.4-5.8-8.4c-3.9-1.2-7.8-2.2-11.8-3.3c-5.2-1.5-10.5-2.9-15.7-4.4c-9-2.5-17.9-5.1-26.9-7.5
		c-2.9-0.8-5.9-1.5-8.9-1.5c-3.2,0.1-6.5,0.9-9.7,1.8c-6.7,1.8-13.4,3.7-20.2,5.6c-9.9,2.8-19.8,5.6-29.7,8.4
		c-1.9,0.5-3.7,1.2-5.5,1.7c-2.9,0.9-4.9,4.4-4.9,7.9c0.2,11.7,0,23.4,0.1,35.1c0,1.5-0.3,2.1-1.8,2.1c-2.2,0-4.3,0.4-6.5,0.6
		c0-13.2,0-26.4,0.1-39.6c0-2.8,1.3-5.3,2.8-7.6c2.1-3,4.8-4.8,7.9-5.9c2.8-1,5.6-1.7,8.5-2.4c4.8-1.3,9.5-2.6,14.3-3.9
		c7.3-2,14.7-4,22-6.1c4.1-1.1,8.1-2.3,12.2-3.6c4-1.3,8.2-2,12.3-1.5c2.6,0.3,5.2,1,7.7,1.6c4.1,1,8.1,2,12.1,3.1
		c4.7,1.3,9.5,2.7,14.2,4.1c6.9,2,13.9,3.9,20.8,5.8c3.7,1,7.5,1.8,11,3.2c4,1.6,7,4.5,8.5,9.3c0.7,2.3,1,4.5,1,6.9
		C289.8,332.6,289.8,344.6,289.8,356.7z"/>
	<path class="st3" d="M281.8,419.1c0.8,0,1.5-0.1,2.3,0c1.6,0.2,3.3,0.4,4.9,0.7c0.2,0,0.4,0.4,0.6,0.6c0.2,4.7-0.9,9.1-2.6,13.2
		c-1.4,3.5-3.4,6.9-5.5,9.9c-2.5,3.5-5.3,6.8-8.3,9.9c-2.4,2.5-5,4.6-7.7,6.6c-3,2.3-6,4.6-9.2,6.6c-4.5,2.8-9.1,5.5-13.8,7.9
		c-5.4,2.8-10.9,5.3-16.4,7.7c-4.2,1.8-8.5,3.5-12.9,4.7c-1.8,0.5-3.9-0.3-5.8-1c-5.1-1.9-10.1-3.8-15.1-6c-4.6-2-9.1-4.4-13.5-6.7
		c-3.9-2.1-7.8-4.2-11.5-6.6c-3.3-2.2-6.5-4.7-9.6-7.2c-2.5-2-4.9-4.2-7.3-6.4c-1.6-1.5-3-3.1-4.4-4.8c-1.7-2-3.3-4.2-4.8-6.4
		c-0.8-1.2-1.4-2.5-2-3.8c-1-2.2-3.2-7.2-4.2-14c-0.3-1.7-0.4-3.1-0.4-4.2c0.2,0,0.6-0.1,1-0.1c0.5-0.1,0.8-0.1,0.9-0.2
		c0.5-0.1,2.2-0.3,6.2-0.8c-0.1,0.6-0.4,1.2-0.3,1.8c0.3,2.3,0.8,4.6,1.2,6.9c1,5.1,3.5,9.4,6.4,13.4c4,5.5,8.8,10.1,14,14.2
		c6.6,5.1,13.5,9.6,20.9,13.2c8,3.9,16.2,7.1,24.3,10.7c2,0.9,4,1.3,6,0.2c0.5-0.3,1.1-0.4,1.6-0.6c6.7-2.9,13.5-5.6,20.1-8.9
		c5.8-2.9,11.4-6.4,17-9.8c3.1-1.9,6.1-4.1,8.8-6.5c3.5-3.1,6.7-6.5,9.9-10c3.4-3.6,5.9-8,7.7-12.8
		C281.4,426.8,282.2,423,281.8,419.1z"/>
	<path class="st0" d="M158.3,358.4c3.6-0.4,7.3-0.7,10.9-1.1c1.9-0.2,3.7-0.3,5.6-0.4c3.4-0.1,6.8-0.2,10.2-0.3c4-0.1,8-0.3,12-0.3
		c9.4-0.1,18.9-0.3,28.3-0.3c3.4,0,6.9,0.2,10.3,0.3c4.5,0.2,9,0.4,13.5,0.7c3.2,0.2,6.3,0.4,9.5,0.7c4.2,0.4,8.5,0.9,12.7,1.3
		c2.8,0.3,5.6,0.4,8.4,0.7c3.2,0.4,6.5,0.9,9.7,1.3c2.9,0.4,5.8,0.7,8.7,1.1c3.4,0.5,6.7,1,10,1.7c2.9,0.7,5.4,3.6,4.4,7.7
		c-1.1,4.3-0.7,6.2-2.9,14.7c-1.7,6.9-2.6,13.3-2.6,13.3s-0.8,5.7-3.1,12.9c-0.5,1.7-1.3,3.7-3.2,4.6c-1.3,0.6-2.8,0.4-5.7,0
		c-1.5-0.2-2.1-0.4-4.3-0.8c-1.3-0.3-3-0.6-5.5-1c-3.9-0.6-7.8-1.1-11.8-1.6c-1.4-0.2-2.8-0.3-4.2-0.4c-4.6-0.5-9.3-0.9-13.9-1.4
		c-1.7-0.2-3.3-0.3-5-0.4c-2.9-0.1-5.8-0.2-8.6-0.3c-6.9-0.2-13.9-0.5-20.8-0.7c-5.4-0.2-10.7-0.3-16.1-0.3c-4.3,0-8.5,0.2-12.8,0.3
		c-4.5,0.2-9.1,0.4-13.6,0.7c-4.5,0.3-9,0.6-13.5,1c-4.5,0.4-9,0.8-13.5,1.4c-5.3,0.6-10.7,1.3-16,2.1c-2.7,0.4-5.3,0.9-8,1.4
		c-3.9,0.7-7.2-2.3-8.2-7.1c-0.8-4.1-1.8-8.1-2.6-12.2c-1-4.9-1.9-9.8-2.9-14.7c-0.6-3.1-1.2-6.3-2.1-9.4c-1.5-4.9,1-9.2,5.6-9.8
		c3.2-0.4,6.4-1.1,9.6-1.6c2.3-0.3,4.6-0.5,6.9-0.8c3.3-0.4,6.6-0.9,10-1.3c5.7-0.7,8.3-1.1,11.5-1.4
		C156.6,358.6,157.6,358.5,158.3,358.4z"/>
	<path class="st4" d="M281.8,419.1c0.4,4-0.5,7.8-1.7,11.3c-1.8,4.8-4.3,9.2-7.7,12.8c-3.2,3.4-6.4,6.9-9.9,10
		c-2.8,2.5-5.8,4.6-8.8,6.5c-5.6,3.5-11.2,6.9-17,9.8c-6.6,3.3-13.4,5.9-20.1,8.9c-0.5,0.2-1.1,0.4-1.6,0.6c-2,1.1-4,0.7-6-0.2
		c-8.1-3.5-16.3-6.8-24.3-10.7c-7.3-3.5-14.3-8-20.9-13.2c-5.2-4.1-10-8.6-14-14.2c-2.8-4-5.4-8.2-6.4-13.4
		c-0.4-2.3-0.9-4.6-1.2-6.9c-0.1-0.6,0.2-1.2,0.3-1.8c3.7-0.5,7.3-0.9,11-1.3c1.8-0.2,3.6-0.2,5.5-0.4c4.4-0.4,8.8-0.9,13.3-1.3
		c1.8-0.2,3.6-0.3,5.5-0.4c3.6-0.2,7.3-0.3,10.9-0.4c11.2-0.2,22.4-0.6,33.7-0.6c6.2,0,12.5,0.4,18.7,0.7c4.9,0.2,9.8,0.6,14.7,1
		c5.2,0.5,10.3,1.1,15.5,1.7c3.1,0.3,6.2,0.7,9.3,1C281,418.8,281.4,418.9,281.8,419.1z"/>
</g>
<path class="st5" d="M193.3,314.7c0,0.9-0.1,1-1.1,1c-1.3,0-2.1-0.9-1.3-1.7c0.3-0.3,0.9-0.5,1.4-0.5
	C193.1,313.7,193.3,313.9,193.3,314.7z"/>
<path class="st5" d="M242.5,314.5c0,0.8-0.1,1-0.8,1c-0.6,0-0.9,0.2-1,0.7c-0.1,0.7,0,0.8,0.8,0.8s1,0.2,1,0.9s-0.2,0.9-0.9,0.9
	c-0.9,0-0.9,0-0.9,3.1v3.1h-1.5h-1.5v-3.1c0-2.5-0.1-3.1-0.6-3.1c-0.3,0-0.6-0.3-0.6-0.9c0-0.5,0.2-0.9,0.5-0.9c0.3,0,0.6-0.5,0.7-1
	c0.3-1.5,1.6-2.5,3.3-2.5C242.4,313.5,242.5,313.6,242.5,314.5z"/>
<path class="st5" d="M180.6,317.9l1.4,3.7l1.3-3.7l1.3-3.6h1.9h2v5.4v5.4h-1.3H186l0-3.9v-3.9l-1.5,3.9c-1.5,3.9-1.5,3.9-2.7,3.8
	c-1.1-0.1-1.2-0.3-2.5-3.7l-1.4-3.6v3.7l0,3.7h-1.3h-1.3v-5.4v-5.4h2h2L180.6,317.9z"/>
<path class="st5" d="M247,315.8c0,1.1,0.1,1.2,0.9,1.2c0.7,0,0.9,0.2,0.9,0.9s-0.2,0.9-0.9,0.9c-0.9,0-0.9,0.1-0.9,1.6
	c0,1.8,0.6,3.1,1.3,2.8c0.4-0.1,0.5,0.1,0.5,0.8c0,1-0.1,1-1.4,1c-2.4,0-3.1-1-3.1-4.1c0-1.7-0.1-2.1-0.6-2.1
	c-0.3,0-0.6-0.3-0.6-0.9c0-0.5,0.2-0.9,0.5-0.9s0.6-0.4,0.7-0.9c0.1-0.9,0.7-1.3,2.3-1.5C246.9,314.6,247,315.1,247,315.8z"/>
<polygon class="st5" points="193.4,321 193.4,325 192.1,325 190.8,325 190.8,321 190.8,317 192.1,317 193.4,317 "/>
<path class="st5" d="M201.9,318.3c0.1,1.1,0.1,1.1-1,0.7c-1.6-0.6-3,0.3-3,2c0,1.2,0.8,2.3,1.7,2.3c0.3,0,0.9-0.1,1.4-0.3
	c0.9-0.3,1-0.2,1,0.7c0,1.1-0.5,1.4-2.8,1.4c-1.9,0-3.1-0.7-3.8-2.3c-1.3-3,0.9-5.8,4.5-5.6C201.7,317.2,201.8,317.2,201.9,318.3z"
	/>
<path class="st5" d="M206.1,317.5c0,0.5,0,0.5,0.6,0c0.3-0.3,0.9-0.6,1.3-0.6c0.6,0,0.7,0.2,0.7,1.2c0,1-0.1,1.1-0.7,1
	c-1.3-0.3-1.9,0.8-1.9,3.4v2.4h-1.3h-1.3v-4v-4h1.3C205.7,317,206.1,317.1,206.1,317.5z"/>
<path class="st5" d="M216.8,317.7c2.6,1.5,2.2,5.8-0.7,6.9c-1.4,0.6-4.2,0.3-5.2-0.5c-1.2-1-1.7-2.9-1.1-4.5
	C210.7,317.2,214.2,316.2,216.8,317.7z"/>
<path class="st5" d="M225.4,318c0,1,0,1-1.4,0.8c-2.2-0.3-2.2,0.4-0.1,1.3c1.6,0.7,1.8,0.9,1.9,2c0.1,1.7-1.2,2.7-3.5,2.7
	c-2.3,0-2.8-0.2-2.8-1.5c0-0.8,0.1-1,0.6-0.8c1.4,0.5,2.4,0.6,3,0.3c0.6-0.3,0.4-0.5-1.1-1.1c-2.6-1-3.2-2.5-1.6-4
	c0.7-0.7,1.3-0.9,3-0.9C225.4,317,225.4,317,225.4,318z"/>
<path class="st5" d="M233.9,317.7c2.6,1.5,2.2,5.8-0.7,6.9c-1.4,0.6-4.2,0.3-5.2-0.5c-1.2-1-1.7-2.9-1.1-4.5
	C227.8,317.2,231.3,316.2,233.9,317.7z"/>
<path class="st5" d="M181.1,331.4c0.4,0.1,0.8,0.5,0.8,0.7c0,0.4-0.3,0.5-1.4,0.3c-0.9-0.1-1.8,0-2.3,0.2c-1.2,0.6-1.9,2.5-1.4,3.9
	c0.5,1.7,1.3,2.1,3.3,2c2,0,2.3,0.5,0.6,1c-1.6,0.4-3,0-4.2-1.1c-0.9-0.8-1-1.3-1-2.7c0-2,0.9-3.4,2.5-4
	C179.3,331.2,179.9,331.1,181.1,331.4z"/>
<path class="st5" d="M190.5,331.9c0,0.2-0.7,0.3-1.7,0.3h-1.7v1.4v1.4h1.5c1.1,0,1.5,0.1,1.5,0.5c0,0.4-0.4,0.5-1.5,0.5
	c-1.4,0-1.5,0-1.5,1.2c0,1.2,0,1.2,1.7,1.2c1.2,0,1.7,0.1,1.7,0.5c0,0.4-0.5,0.5-2.2,0.5H186v-4v-4h2.2
	C189.5,331.6,190.5,331.7,190.5,331.9z"/>
<path class="st5" d="M199.5,332.1c0.9,0.7,0.9,2.1-0.1,3.1c-0.7,0.7-0.7,0.7,0.4,2.3c1.3,1.8,1.3,2.1,0.6,2.1
	c-0.3,0-0.9-0.6-1.4-1.3c-1.7-2.7-2.9-2.9-2.9-0.4c0,1.3-0.1,1.7-0.6,1.7c-0.4,0-0.6-0.7-0.6-4v-4h1.9
	C198.1,331.6,199,331.8,199.5,332.1z"/>
<path class="st5" d="M209.4,331.9c0,0.2-0.6,0.3-1.3,0.3h-1.3v3.6c0,3-0.1,3.6-0.6,3.6c-0.4,0-0.6-0.6-0.6-3.6v-3.6h-1.1
	c-0.6,0-1.1-0.2-1.1-0.3c0-0.2,1.2-0.3,3-0.3C208.2,331.6,209.4,331.7,209.4,331.9z"/>
<ellipse class="st5" cx="213.7" cy="335.5" rx="0.6" ry="4"/>
<path class="st5" d="M223.2,331.9c0,0.2-0.7,0.3-1.7,0.3h-1.7v1.4v1.4h1.5c1.1,0,1.5,0.1,1.5,0.5c0,0.4-0.4,0.5-1.5,0.5h-1.5v1.7
	c0,1.3-0.1,1.7-0.6,1.7c-0.4,0-0.6-0.7-0.6-4v-4h2.2C222.2,331.6,223.2,331.7,223.2,331.9z"/>
<ellipse class="st5" cx="227.8" cy="335.5" rx="0.6" ry="4"/>
<path class="st5" d="M237.3,331.9c0,0.2-0.7,0.3-1.7,0.3H234v1.4v1.4h1.5c1.1,0,1.5,0.1,1.5,0.5c0,0.4-0.4,0.5-1.5,0.5
	c-1.4,0-1.5,0-1.5,1.2c0,1.2,0,1.2,1.7,1.2c1.2,0,1.7,0.1,1.7,0.5c0,0.4-0.5,0.5-2.2,0.5h-2.2v-4v-4h2.2
	C236.3,331.6,237.3,331.7,237.3,331.9z"/>
<path class="st5" d="M246.6,332.1c1.5,0.7,2.2,2.7,1.5,4.7c-0.6,1.9-2.2,2.8-4.8,2.8h-2v-4v-4h2C244.6,331.6,246,331.8,246.6,332.1z
	"/>
<path class="st5" d="M196.7,424.5c0.1,1,0,1.1-0.5,0.9c-1.5-0.5-2.3-0.6-2.9-0.1c-0.9,0.6-0.6,1.1,1.4,1.9c1.8,0.7,2.4,1.6,2.4,3.1
	c0,1.5-1.1,2.4-3.1,2.6c-2.5,0.3-3.7-0.1-3.9-1.6c-0.1-1,0-1.1,0.6-0.8c0.4,0.1,1.3,0.3,2.2,0.3c1.1,0,1.5-0.1,1.6-0.6
	c0.1-0.4-0.4-0.8-1.8-1.4c-2-0.8-2.6-1.5-2.6-3c0-1.9,1.5-2.9,4.5-2.8C196.6,423.3,196.6,423.3,196.7,424.5z"/>
<path class="st5" d="M207.2,423.7c2.9,1.6,2.9,6.7-0.1,8.4c-1.5,0.8-4.1,0.9-5.5,0.1c-3-1.7-3-7.1,0.1-8.7
	C202.9,422.9,206,423,207.2,423.7z"/>
<path class="st5" d="M219.5,424.3c0,1.2,0,1.2-1.3,0.9c-1.8-0.5-3.1,0.1-3.8,1.6c-0.4,1.1-0.4,1.4,0,2.4c0.6,1.3,1.7,1.8,3.8,1.5
	c1.2-0.2,1.3-0.1,1.3,0.8c0,0.6-0.3,1-0.6,1.2c-1.1,0.4-3.9,0.2-4.9-0.3c-3-1.5-3.3-5.8-0.6-8.1c1.2-1,1.5-1.1,3.8-1.1h2.4V424.3z"
	/>
<path class="st5" d="M224.8,423.4c0.1,0.2,0.1,2.4,0,4.9l-0.3,4.5h-1.1h-1V428v-4.9h1.1C224.2,423.1,224.7,423.2,224.8,423.4z"/>
<path class="st5" d="M186.7,424.7c0.1,1.1,0.1,1.1-1,0.7c-0.9-0.3-1.4-0.2-2.1,0c-1.3,0.6-1.1,1,0.8,1.8c3,1.2,3.9,2.9,2.6,4.7
	c-0.7,1-3.2,1.6-5.1,1.3c-1.4-0.2-1.4-0.3-1.4-1.4c0-1.1,0.1-1.2,0.7-0.8c1,0.5,2.9,0.4,3.4-0.2c0.4-0.4,0.2-0.6-0.8-1.2
	c-0.7-0.4-1.4-0.7-1.7-0.7c-0.7,0-2-1.8-2-2.7c0-1.9,1.6-2.8,4.5-2.7C186.5,423.6,186.6,423.7,186.7,424.7z"/>
<path class="st5" d="M234.9,427.3c0.7,2.1,1.5,4.3,1.7,4.9c0.3,0.9,0.3,1-1,1c-1.1,0-1.4-0.2-1.7-1c-0.4-1-1.2-1.4-2.8-1.4
	c-0.6,0-1,0.3-1.3,1c-0.4,0.9-0.6,1-1.8,1h-1.4l0.7-1.7c2.3-5.3,3.1-7.2,3.2-7.4c0.1-0.1,0.9-0.3,1.6-0.3h1.4L234.9,427.3z"/>
<path class="st5" d="M243.1,423.8h2.4v1.1c0,1-0.1,1-1.4,0.9l-1.4-0.1l-0.2,3.6c-0.1,2-0.3,3.7-0.3,3.8c0,0.1-0.6,0.1-1.2,0
	l-1.2-0.2l0.1-3.7l0.1-3.8h-1.4c-1.3,0-1.4-0.1-1.4-1.1v-1.1l1.7,0.2C240,423.7,241.8,423.8,243.1,423.8z"/>
<path class="st5" d="M176.3,428.5c1.1,2.4,1.9,4.5,1.9,4.7c0,0.2-0.6,0.3-1.3,0.3c-1,0-1.3-0.2-1.7-1c-0.3-0.7-0.7-1-1.3-1
	c-1.5,0-2.7,0.6-2.8,1.5c-0.1,0.7-0.4,0.8-1.6,0.9c-1.1,0.1-1.4,0-1.3-0.3c0.1-0.2,0.8-2.4,1.6-4.9l1.4-4.4h1.6h1.5L176.3,428.5z"/>
<path class="st5" d="M254,425.2c0,1,0,1-1.9,1c-1.7,0-1.9,0.1-1.9,0.8c0,0.8,0.2,0.9,1.6,1s1.6,0.2,1.7,1c0.1,0.9,0,1-1.5,1
	c-1.2,0-1.7,0.2-1.9,0.6c-0.4,1-0.3,1.1,1.6,1.3c1.7,0.2,1.9,0.3,1.9,1.1c0,0.8-0.1,0.9-2,0.9c-1.1,0-2.5-0.1-3.1-0.2l-1.1-0.2
	l0.1-2.8c0.1-1.6,0.2-3.7,0.3-4.7l0.2-1.8h3h2.9V425.2z"/>
<path class="st5" d="M205,449.5l5,0.1l-3.8,2.5c-2.1,1.4-3.9,2.7-4.1,2.9c-0.1,0.2,0.5,2.3,1.3,4.7c0.9,2.4,1.5,4.4,1.4,4.5
	c-0.1,0-1.2-0.6-2.5-1.5c-1.3-0.9-3.2-2.2-4.2-2.8l-1.7-1.2l-4.1,2.8c-2.3,1.5-4.1,2.6-4.1,2.4c0-0.2,0.7-2.3,1.5-4.6
	c0.8-2.3,1.5-4.2,1.5-4.2c0,0-1.9-1.3-4.1-2.8l-4.1-2.7l5.1-0.2l5.1-0.2l1.6-4.5c0.9-2.5,1.6-4.6,1.6-4.7c0-0.1,0.8,2,1.7,4.6
	l1.7,4.8L205,449.5z"/>
<path class="st5" d="M229.3,444.8l1.6,4.4l5.1,0.2l5.1,0.2l-4.1,2.7c-2.2,1.5-4.1,2.8-4.1,2.8c0,0,0.7,1.9,1.5,4.2
	c0.8,2.3,1.5,4.3,1.5,4.6c0,0.2-1.9-0.8-4.1-2.4l-4.1-2.8l-1.7,1.2c-1,0.6-2.8,1.9-4.2,2.8c-1.3,0.9-2.5,1.6-2.5,1.5
	c-0.1-0.1,0.6-2.1,1.4-4.5c0.9-2.4,1.4-4.5,1.3-4.7c-0.1-0.2-1.9-1.5-4.1-2.9l-3.8-2.5l5.1-0.1l5-0.1l1.6-4.6
	c0.9-2.6,1.7-4.6,1.8-4.5C227.7,440.3,228.4,442.4,229.3,444.8z"/>
<path class="st6" d="M213.1,319.1c-1,0.6-0.9,3.3,0.1,3.8c0.6,0.3,1,0.3,1.7,0c0.7-0.3,0.9-0.6,0.9-1.9c0-1.2-0.2-1.7-0.7-1.9
	C214.2,318.7,213.9,318.7,213.1,319.1z"/>
<path class="st7" d="M230.2,319.1c-1,0.6-0.9,3.3,0.1,3.8c0.6,0.3,1,0.3,1.7,0c0.7-0.3,0.9-0.6,0.9-1.9c0-1.2-0.2-1.7-0.7-1.9
	C231.3,318.7,231,318.7,230.2,319.1z"/>
<path class="st7" d="M196,333.8v1.6l1.2-0.2c2-0.3,2.5-2,0.8-2.6C196.3,332,196,332.1,196,333.8z"/>
<path class="st7" d="M242.5,335.3v3.2h1.3c1.8,0,2.6-0.5,3.1-1.9c0.8-2.3-0.2-3.7-3-4.2l-1.4-0.2V335.3z"/>
<path class="st8" d="M207.4,367.1c-0.1,0.3-0.2,2.6-0.1,5.2c0.1,5,0.4,5.8,2.4,7c1.3,0.8,5,0.8,6.3,0c1.9-1.1,2.2-2.4,2.2-7.7v-4.9
	l-1-0.1l-1-0.1l-0.1,4.9c-0.1,4.5-0.1,4.9-1,5.7c-1.3,1.2-3.3,1.2-4.5,0c-0.8-0.8-0.9-1.2-1-5.7l-0.1-4.8h-0.9
	C207.9,366.6,207.5,366.8,207.4,367.1z"/>
<path class="st8" d="M222.3,366.8c-0.1,0.1-0.2,3.1-0.2,6.6v6.3h1.1h1.1v-2.6v-2.6h1.1c1.2,0,2.3,1.1,3.7,3.7
	c0.7,1.4,0.9,1.5,2.1,1.5h1.3l-1-1.7c-0.6-0.9-1.5-2.2-2.1-2.9l-1.1-1.3l1-0.4c1.1-0.5,2-1.9,2-3.1c0-1.2-1-2.6-2.1-3.1
	C228,366.9,222.7,366.5,222.3,366.8z"/>
<path class="st5" d="M228.3,369.1c0.3,0.2,0.5,0.9,0.5,1.5c0,1.4-1.1,2.2-3,2.2h-1.4v-2c0-1.1,0.1-2.1,0.3-2.3
	C224.9,368.2,227.6,368.6,228.3,369.1z"/>
<path class="st8" d="M194.2,367.8c0,0.8,0,0.8,3.6,0.9l3.5,0.1l-3.7,5.1c-2.1,2.8-3.8,5.4-3.8,5.7c0,0.4,0.7,0.5,3.5,0.5
	c1.9,0,4.3-0.1,5.4-0.2c1.7-0.2,1.9-0.3,1.9-1.1V378l-3.7,0.2c-2,0.1-3.7,0.1-3.7,0c0-0.1,1.7-2.6,3.7-5.4s3.7-5.3,3.7-5.5
	c0-0.2-1.9-0.3-5.2-0.3h-5.2V367.8z"/>
<path class="st8" d="M234.9,373.4c-0.1,3.5-0.2,6.4-0.1,6.4c0.1,0.1,1.9,0.2,4,0.3l3.8,0.2v-0.9c0-0.8-0.1-0.9-2.8-1.1l-2.8-0.2
	v-1.9v-1.9h2.4c1.8,0,2.4-0.1,2.6-0.6c0.4-1,0.2-1.2-2.2-1.2h-2.4v-1.9V369h2.6c2.5,0,2.6,0,2.6-0.8c0-0.8-0.1-0.9-3.7-1l-3.7-0.1
	L234.9,373.4z"/>
<path class="st8" d="M182,373.6c-1.3,3.5-2.3,6.4-2.3,6.6c0,0.2,0.5,0.2,1.2,0.2c1-0.1,1.2-0.3,1.7-1.8l0.5-1.6l2-0.1
	c1.1,0,2.4-0.1,2.8-0.1c0.6,0,1,0.3,1.4,1.5c0.6,1.3,0.8,1.6,1.8,1.7c0.6,0.1,1.2,0,1.2-0.2c0-0.1-1.2-3.1-2.7-6.4l-2.7-6.1h-1.4
	h-1.4L182,373.6z"/>
<path class="st5" d="M186.9,372.3c0.6,1.4,1,2.6,1,2.7c0,0.1-0.9,0.2-2,0.2c-1.1,0-2-0.1-2-0.2c0-0.6,1.6-5.3,1.8-5.3
	C185.7,369.7,186.3,370.8,186.9,372.3z"/>
<path class="st8" d="M195,392.4c0,2.8,0.1,5,0,5s-1.7-2.2-3.6-4.9c-3.4-4.6-3.6-4.9-4.9-4.9h-1.3v3.7c0,2.1,0.1,5,0.3,6.6
	c0.2,2.8,0.2,2.9,1.2,2.8l0.9-0.1l-0.1-5c-0.1-4.5,0-5,0.5-4.3c0.3,0.4,1.9,2.6,3.6,4.9c2.8,3.8,3.2,4.1,4.3,4.2l1.3,0.1l-0.1-6.2
	c-0.1-3.4-0.2-6.4-0.3-6.6c-0.1-0.2-0.6-0.4-1.2-0.4h-1L195,392.4z"/>
<path class="st8" d="M201.4,391.6c0.1,2.3,0.3,5.3,0.3,6.6v2.4h1.1h1.1V394v-6.6h-1.4h-1.3L201.4,391.6z"/>
<path class="st8" d="M209.2,387.7c-1.1,0.4-2.4,2-2.4,3c0,1.8,0.9,2.7,4.1,4.3c2.3,1.1,2.8,1.8,2,2.9c-0.9,1.2-3,1.3-5.5,0.3
	c-0.6-0.2-0.7-0.1-0.7,0.8c0,1.2,0.6,1.5,3.8,1.5c3.4,0,5.1-1.1,5.1-3.4c0-1.4-1.4-2.8-4-4.1c-2.4-1.2-2.9-1.8-2.3-2.9
	c0.5-0.8,1.8-1.1,3.9-0.9c1.6,0.2,1.7,0.1,1.6-0.8c-0.1-0.9-0.2-0.9-2.5-1C211.1,387.5,209.6,387.6,209.2,387.7z"/>
<path class="st8" d="M218,388.1c0,0.8,0.2,0.9,1.9,1.1l1.9,0.2v5.5v5.5h1.1h1.1V395v-5.5h2c1.9,0,2,0,2-0.9c0-0.8-0.1-0.9-1.6-0.9
	c-0.9,0-3.2-0.1-5-0.2l-3.4-0.2V388.1z"/>
<path class="st8" d="M230.8,391.2c-0.1,2-0.2,4.9-0.2,6.5v2.9h1.1h1.1V398c0-2.5,0-2.6,0.9-2.6c1.3,0,2,0.7,3.6,3.1
	c1.2,1.9,1.5,2.3,2.6,2.4c0.7,0.1,1.2,0,1.2-0.2c0-0.4-2.6-4.3-3.4-5.2c-0.7-0.7-0.7-0.7,0-1c1.2-0.3,2.3-1.9,2.3-3.3
	c0-2.5-1.5-3.4-6-3.6l-2.8-0.1L230.8,391.2z"/>
<path class="st5" d="M237.2,390.3c0.7,1,0.4,2.5-0.6,2.9c-0.4,0.2-1.4,0.3-2.3,0.3c-1.5,0-1.5,0-1.3-1.1c0.1-0.6,0.2-1.6,0.2-2.2
	c0-1.1,0-1.1,1.7-1C236.2,389.5,236.8,389.7,237.2,390.3z"/>
<path class="st8" d="M179.2,392.5c0.3,8.8,0.4,9.2,2.2,8.6c0.5-0.2,0.6-0.9,0.4-5.8c-0.3-7.1-0.3-7.1-1.6-7.1H179L179.2,392.5z"/>
<path class="st8" d="M244.9,393.9c-3.6,7.8-3.4,7-1.9,7c1.2,0,1.3-0.1,1.8-1.5l0.6-1.5l2.8-0.1l2.8-0.1l0.5,1.6
	c0.4,1.4,0.7,1.7,1.6,1.9c0.6,0.2,1.2,0.2,1.3,0.1c0.1-0.1-0.8-3.1-2-6.7l-2.2-6.5l-1.3-0.1l-1.3-0.1L244.9,393.9z"/>
<path class="st5" d="M250.3,395.8c0,0.1-0.9,0.3-2.1,0.3s-2-0.1-1.9-0.3c0.1-0.2,0.6-1.5,1.2-2.9l1.1-2.6l0.9,2.6
	C249.9,394.3,250.3,395.6,250.3,395.8z"/>
<path class="st8" d="M169.8,393.7l-1.9,5.2l-2.4-4.9l-2.4-4.9h-1.7h-1.6l0.3,5.1c0.1,2.8,0.3,5.8,0.4,6.6c0.2,1.3,0.3,1.4,1.2,1.2
	l0.9-0.2l-0.2-4.9l-0.2-4.9l2.5,4.8c2.3,4.4,2.6,4.8,3.4,4.7c0.8-0.1,1.1-0.6,2.8-5.5l1.9-5.4l0.2,4c0.1,2.2,0.3,4.6,0.3,5.3
	c0,1.2,0.1,1.3,1.2,1.3h1.2l-0.3-3.4c-0.1-1.8-0.3-4.7-0.4-6.4l-0.3-3h-1.5h-1.5L169.8,393.7z"/>
<path class="st8" d="M254.9,389.2c-0.3,1,0.2,1.3,2.2,1.3h1.9l-0.2,3c-0.1,1.7-0.3,4.3-0.5,5.7l-0.2,2.7h1.2h1.1l0.2-2.5
	c0.1-1.4,0.3-3.8,0.4-5.5l0.2-3h2c1.9,0,2,0,2-0.9c0-0.8-0.1-0.9-1.6-0.9c-0.9,0-3.2-0.1-5.1-0.2
	C255.5,388.6,255.1,388.7,254.9,389.2z"/>
<path class="st8" d="M269.5,390.5c-0.6,0.3-1.4,0.9-1.7,1.3c-1.9,2-2.3,6-0.9,8.3c1.3,2.1,2.5,2.8,5.4,2.9c3.3,0.1,4.7-0.6,6.1-3.1
	c0.9-1.6,1-2.2,0.9-4.2c-0.2-3.8-2.5-5.9-6.7-5.9C271.3,389.8,270.2,390.1,269.5,390.5z"/>
<path class="st5" d="M275.1,392.2c1.8,1,2.4,3.4,1.5,6c-0.9,2.9-4.2,4-6.6,2.2c-2-1.6-2.3-4.3-0.9-6.8
	C270.2,391.6,273,391,275.1,392.2z"/>
<path class="st8" d="M145.9,390.4c-1.1,0.1-1.2,0.2-1,1.1c0.1,0.5,0.4,3.1,0.6,5.6c0.6,7,0.3,6.4,3.6,6.1c5.4-0.5,8.1-2.7,8-6.9
	C157,391.2,153.8,389.5,145.9,390.4z"/>
<path class="st5" d="M152.6,392.4c1.3,0.6,2.2,2.3,2.2,4.3c0,2.6-1.6,4.2-4.9,4.6l-1.7,0.2l-0.2-2.2c-0.1-1.2-0.3-3.4-0.5-4.9
	l-0.3-2.7h2.1C150.6,391.9,152,392.1,152.6,392.4z"/>
<path class="st8" d="M283.2,391.3c-0.1,0.4-1.7,11.6-1.7,12.3c0,0.2,0.5,0.4,1.1,0.4c1.1,0,1.1,0,1.4-2.5c0.1-1.6,0.4-2.5,0.7-2.6
	c1-0.3,2.5,1,3.5,3.3c0.6,1.3,1.3,2.4,1.6,2.6c0.5,0.3,2.1,0.4,2.1,0.1c0-0.4-2.7-5.2-3.3-5.8c-0.5-0.5-0.5-0.6,0.1-0.6
	c1.8,0,3.6-2.5,3-4.2c-0.4-1.1-1.6-2.3-2.8-2.5C286.2,391.2,283.3,391,283.2,391.3z"/>
<path class="st5" d="M287.8,393.3c1.2,0.4,1.6,0.9,1.6,1.9c0,1.1-1.3,2.2-2.6,2.2c-1.6,0-2.2-0.3-2-1.1
	C285.3,392.6,285.4,392.5,287.8,393.3z"/>
<path class="st8" d="M134.7,391.4c-0.4,0.1-1,2.1-2.2,6.7c-0.9,3.6-1.6,6.6-1.6,6.8c0,0.3,2-0.1,2.3-0.6c0.1-0.2,0.4-0.9,0.5-1.7
	c0.2-1.2,0.3-1.3,2-1.5c1-0.1,2.2-0.3,2.8-0.4c0.9-0.2,1.1,0,1.9,1.4c0.7,1.3,1,1.6,1.8,1.6c0.6,0,1.1-0.1,1.2-0.3
	c0.1-0.1-1.3-2.9-3.2-6.2C136.7,391,136.6,390.9,134.7,391.4z"/>
<path class="st5" d="M138.4,398.9c-0.1,0.1-1.1,0.2-2.2,0.3c-1.6,0.2-2,0.1-1.8-0.2c0.1-0.2,0.4-1.7,0.7-3.1l0.5-2.7l1.5,2.8
	C137.9,397.5,138.5,398.9,138.4,398.9z"/>
<path class="st9" d="M202.9,425.7c-1.9,1.7-0.9,5,1.4,5c1.6,0,2.3-0.8,2.3-2.8c0-1.4-0.2-1.8-0.9-2.4
	C204.6,424.6,204,424.7,202.9,425.7z"/>
<path class="st9" d="M231.3,427.4l-0.6,1.6h1.1c1,0,1.1-0.1,0.9-1C232,425.8,231.9,425.8,231.3,427.4z"/>
<path class="st9" d="M172.4,428.1l-0.4,1.6h1c1.2,0,1.2,0,0.4-1.9l-0.6-1.4L172.4,428.1z"/>
<path d="M220.8,386.6"/>
<path class="st3" d="M137.7,418.9"/>
</svg>
